<svg id="SvgjsSvg1020" width="288" height="288" xmlns="http://www.w3.org/2000/svg" version="1.1" xmlns:xlink="http://www.w3.org/1999/xlink" xmlns:svgjs="http://svgjs.com/svgjs"><defs id="SvgjsDefs1021"></defs><g id="SvgjsG1022"><svg xmlns="http://www.w3.org/2000/svg" width="288" height="288" enable-background="new 0 0 400 400" viewBox="0 0 400 400"><path fill="#3ba58a" d="M261.037,297.928c-6.253,6.731-13.381,12.81-21.212,18.095c-21.628,14.653-48.694,23.35-78.082,23.35
				c-20.519,0-39.907-4.236-57.086-11.782c-24.357,24.816-63.267,22.556-63.267,22.556l30.59-43.054
				c-23.747-20.488-38.472-49.03-38.472-80.618c0-28.095,11.649-53.787,30.926-73.542c6.822-6.985,14.603-13.238,23.156-18.584
				c-5.194,13.075-8.024,27.127-8.024,41.76c0,69.764,64.234,126.31,143.458,126.31C236.19,302.419,248.929,300.861,261.037,297.928
				z" class="color2A94F4 svgShape"></path><linearGradient id="a" x1="184.772" x2="184.772" y1="113.576" y2="302.419" gradientUnits="userSpaceOnUse"><stop offset=".394" stop-color="#80e8be" class="stopColor80e8be svgShape"></stop><stop offset="1" stop-color="#00c278" class="stopColor00c278 svgShape"></stop></linearGradient><path fill="url(#a)" d="M289.977,226.475c0,27.117-10.845,51.995-28.939,71.454c-12.108,2.933-24.847,4.491-38.013,4.491
				c-79.224,0-143.458-56.546-143.458-126.31c0-14.632,2.83-28.685,8.024-41.76c20.936-13.075,46.516-20.773,74.152-20.773
				C232.565,113.576,289.977,164.114,289.977,226.475z"></path><path fill="#4e426d" d="M323.458,266.3l34.226,48.175c0,0-43.543,2.525-70.782-25.233c-8.207,3.594-16.863,6.517-25.864,8.686
				c-12.108,2.933-24.847,4.491-38.013,4.491c-79.224,0-143.458-56.546-143.458-126.31c0-14.632,2.83-28.685,8.024-41.76
				C107.172,85.104,160.419,49.8,223.024,49.8c79.232,0,143.467,56.536,143.467,126.309
				C366.491,211.445,350.025,243.379,323.458,266.3z" class="colorCCE9FF svgShape"></path><circle cx="169.462" cy="183.78" r="20.53" fill="#3ba58a" class="color2A94F4 svgShape"></circle><circle cx="225.065" cy="183.78" r="20.53" fill="#3ba58a" class="color2A94F4 svgShape"></circle><circle cx="280.669" cy="183.78" r="20.53" fill="#3ba58a" class="color2A94F4 svgShape"></circle></svg></g></svg>